<svg width="20" height="20" viewBox="0 0 20 20" fill="none" xmlns="http://www.w3.org/2000/svg">
<path d="M10 2V18" stroke="white" stroke-width="2" stroke-linecap="round" stroke-linejoin="round"/>
<path opacity="0.4" d="M10 2V18" stroke="#1A1926" stroke-width="2" stroke-linecap="round" stroke-linejoin="round"/>
<path d="M14 4.82355H7.99995C7.25735 4.82355 6.54515 5.09624 6.02005 5.58162C5.49495 6.06701 5.19995 6.72534 5.19995 7.41178C5.19995 8.09823 5.49495 8.75655 6.02005 9.24194C6.54515 9.72733 7.25735 10 7.99995 10H12C12.7426 10 13.4547 10.2727 13.9799 10.7581C14.505 11.2435 14.8 11.9018 14.8 12.5883C14.8 13.2747 14.505 13.933 13.9799 14.4184C13.4547 14.9038 12.7426 15.1765 12 15.1765H5.19995" stroke="#1A1926" stroke-width="2" stroke-linecap="round" stroke-linejoin="round"/>
</svg>
