<svg width="24" height="24" viewBox="0 0 24 24" fill="none" xmlns="http://www.w3.org/2000/svg">
<path fill-rule="evenodd" clip-rule="evenodd" d="M19.008 6.40711C19.3985 6.01658 19.3985 5.38342 19.008 4.99289C18.6175 4.60237 17.9843 4.60237 17.5938 4.99289L12.0004 10.5863L6.40706 4.99289C6.01653 4.60237 5.38337 4.60237 4.99284 4.99289C4.60232 5.38342 4.60232 6.01658 4.99284 6.40711L10.5862 12.0005L4.99284 17.5938C4.60232 17.9843 4.60232 18.6175 4.99284 19.008C5.38337 19.3986 6.01653 19.3986 6.40706 19.008L12.0004 13.4147L17.5938 19.008C17.9843 19.3986 18.6175 19.3986 19.008 19.008C19.3985 18.6175 19.3985 17.9843 19.008 17.5938L13.4146 12.0005L19.008 6.40711Z" fill="#1A1926"/>
</svg>
