<svg width="150" height="150" viewBox="0 0 150 150" fill="none" xmlns="http://www.w3.org/2000/svg">
<rect x="0.5" y="0.5" width="149" height="149" rx="29.5" stroke="#C6C8CC" stroke-dasharray="8 8"/>
<rect x="51" y="51" width="48" height="48" rx="24" fill="#333333" fill-opacity="0.7"/>
<path d="M74.9996 72.7147C75.9236 72.7147 76.7948 73.0751 77.446 73.7256C78.0972 74.3848 78.458 75.2551 78.458 76.1692C78.4492 77.1274 78.062 77.9888 77.4372 78.6129C76.8124 79.237 75.95 79.6238 74.9996 79.6238C74.0756 79.6238 73.2132 79.2634 72.5532 78.6129C71.902 77.9537 71.5412 77.0922 71.5412 76.1692C71.5324 75.2551 71.8932 74.3936 72.5444 73.7344C73.2044 73.0751 74.0756 72.7147 74.9996 72.7147ZM74.9996 74.0332C74.4276 74.0332 73.8908 74.253 73.4772 74.6661C73.0724 75.0705 72.8524 75.6067 72.8612 76.1605V76.1692C72.8612 76.7406 73.0812 77.2768 73.486 77.6812C73.8908 78.0855 74.4276 78.3053 74.9996 78.3053C76.1788 78.3053 77.1292 77.3471 77.138 76.1692C77.138 75.5979 76.918 75.0617 76.5132 74.6573C76.1084 74.253 75.5716 74.0332 74.9996 74.0332ZM79.9364 72.5037C80.3764 72.5037 80.7372 72.8641 80.7372 73.3036C80.7372 73.7431 80.3764 74.0948 79.9364 74.0948C79.4964 74.0948 79.1444 73.7431 79.1444 73.3036C79.1444 72.8641 79.4964 72.5037 79.9364 72.5037Z" fill="white"/>
<path opacity="0.5" d="M79.7871 69.928L79.6992 69.7347C79.4616 69.2336 79.1888 68.6535 79.0216 68.3194C78.6167 67.5283 77.9216 67.0888 77.068 67.08H72.9232C72.0696 67.0888 71.3832 67.5283 70.9784 68.3194C70.8024 68.671 70.5032 69.3039 70.2568 69.8226L70.204 69.928C70.1776 69.9984 70.1072 70.0335 70.0368 70.0335C67.916 70.0335 66.2 71.7564 66.2 73.8661V79.0875C66.2 81.1971 67.916 82.92 70.0368 82.92H79.9632C82.0752 82.92 83.7999 81.1971 83.7999 79.0875V73.8661C83.7999 71.7564 82.0752 70.0335 79.9632 70.0335C79.884 70.0335 79.8223 69.9896 79.7871 69.928Z" fill="white"/>
</svg>
